<?xml version="1.0" encoding="UTF-8" standalone="no"?>
<!-- Created with Inkscape (http://www.inkscape.org/) -->

<svg
   xmlns:dc="http://purl.org/dc/elements/1.1/"
   xmlns:cc="http://creativecommons.org/ns#"
   xmlns:rdf="http://www.w3.org/1999/02/22-rdf-syntax-ns#"
   xmlns:svg="http://www.w3.org/2000/svg"
   xmlns="http://www.w3.org/2000/svg"
   xmlns:sodipodi="http://sodipodi.sourceforge.net/DTD/sodipodi-0.dtd"
   xmlns:inkscape="http://www.inkscape.org/namespaces/inkscape"
   width="674.00909"
   height="674.0564"
   id="svg2"
   version="1.1"
   inkscape:version="0.48.2 r9819"
   sodipodi:docname="awe_icon.svg">
  <defs
     id="defs4" />
  <sodipodi:namedview
     id="base"
     pagecolor="#ffffff"
     bordercolor="#666666"
     borderopacity="1.0"
     inkscape:pageopacity="0.0"
     inkscape:pageshadow="2"
     inkscape:zoom="0.25219203"
     inkscape:cx="-240.72102"
     inkscape:cy="245.10372"
     inkscape:document-units="px"
     inkscape:current-layer="g3816"
     showgrid="false"
     inkscape:window-width="1300"
     inkscape:window-height="744"
     inkscape:window-x="66"
     inkscape:window-y="24"
     inkscape:window-maximized="1"
     fit-margin-top="0"
     fit-margin-left="0"
     fit-margin-right="0"
     fit-margin-bottom="0" />
  <metadata
     id="metadata7">
    <rdf:RDF>
      <cc:Work
         rdf:about="">
        <dc:format>image/svg+xml</dc:format>
        <dc:type
           rdf:resource="http://purl.org/dc/dcmitype/StillImage" />
        <dc:title></dc:title>
      </cc:Work>
    </rdf:RDF>
  </metadata>
  <g
     inkscape:label="Layer 1"
     inkscape:groupmode="layer"
     id="layer1"
     transform="translate(-35.445031,-33.729857)">
    <g
       id="g3816"
       transform="matrix(5.8015338,0,0,5.8015338,-1211.5246,-2336.6677)"
       inkscape:export-xdpi="400"
       inkscape:export-ydpi="400"
       style="fill:#000000">
      <path
         sodipodi:nodetypes="csccsccsccscc"
         inkscape:connector-curvature="0"
         id="path2996"
         d="m 245.39679,417.71531 c 0,0 -11.9463,-1.2444 -16.92392,4.47986 -4.97762,5.72427 -4.97762,13.43958 -4.97762,13.43958 l 0,61.9714 c 0,0 -0.49776,7.46644 4.47986,13.1907 4.97762,5.72427 14.18622,5.47539 14.18622,5.47539 l 63.46469,0.24888 c 0,0 6.22203,0.74664 11.19965,-3.9821 4.97762,-4.72874 5.47538,-11.69741 5.47538,-11.69741 l 0.24889,-65.70462 c 0,0 0.60352,-6.66172 -4.47987,-12.19517 -4.20935,-4.58203 -11.94629,-5.47539 -11.94629,-5.47539 z"
         style="fill:#000000;stroke:none;fill-opacity:1"
         inkscape:export-xdpi="400"
         inkscape:export-ydpi="400" />
      <path
         sodipodi:nodetypes="ccccccccccccc"
         inkscape:connector-curvature="0"
         id="path3770"
         d="m 263.95894,425.52485 -17.11592,0.19901 -21.9307,36.27654 13.2611,-0.22924 5.35296,-11.57177 c 1.80493,-0.23959 1.14297,-0.0587 4.04785,0.22594 l -2.32037,11.43257 11.82047,-0.24074 z m -10.85166,7.4666 -4.49422,11.72945 -2.7294,-0.26108 z"
         style="fill:#ffffff;fill-opacity:1;stroke:none"
         inkscape:export-xdpi="400"
         inkscape:export-ydpi="400" />
      <path
         sodipodi:nodetypes="cccccccccccccc"
         inkscape:connector-curvature="0"
         id="path3774"
         d="m 260.04814,456.53254 10.53095,-0.24074 -5.12336,16.61485 10.87603,-16.13338 8.86403,0 -2.63435,15.71516 8.80375,-16.19664 11.61504,-0.17598 -14.64488,27.9817 -12.98484,0.17599 0.7405,-11.84741 -8.29951,12.02339 -15.84707,0.17598 z"
         style="fill:#ffffff;fill-opacity:1;stroke:none"
         inkscape:export-xdpi="400"
         inkscape:export-ydpi="400" />
      <path
         sodipodi:nodetypes="cccccccccccccc"
         inkscape:connector-curvature="0"
         id="path3776"
         d="m 285.19201,493.83606 -8.75918,16.41617 30.09965,-0.30928 4.1649,-8.93893 -18.22616,-0.24146 1.88526,-3.19085 12.38951,0.14654 3.36419,-6.58873 -12.5047,-0.46827 2.00541,-3.03622 16.09677,0.48149 4.53027,-9.51031 -26.82447,-0.0213 z"
         style="fill:#ffffff;fill-opacity:1;stroke:none"
         inkscape:export-xdpi="400"
         inkscape:export-ydpi="400" />
    </g>
  </g>
</svg>
